<mxfile host="Electron" agent="Mozilla/5.0 (Windows NT 10.0; Win64; x64) AppleWebKit/537.36 (KHTML, like Gecko) draw.io/26.0.16 Chrome/132.0.6834.196 Electron/34.2.0 Safari/537.36" version="26.0.16">
  <diagram name="Page-1" id="I6qwG0xTKFVLU8Desz0M">
    <mxGraphModel dx="1366" dy="1669" grid="1" gridSize="10" guides="1" tooltips="1" connect="1" arrows="1" fold="1" page="1" pageScale="1" pageWidth="1169" pageHeight="827" math="0" shadow="0">
      <root>
        <mxCell id="0" />
        <mxCell id="1" parent="0" />
        <mxCell id="Dw2LwTCsNh89dFWnySoy-1" value="" style="rounded=0;whiteSpace=wrap;html=1;movable=0;resizable=0;rotatable=0;deletable=0;editable=0;locked=1;connectable=0;" parent="1" vertex="1">
          <mxGeometry x="60" y="-50" width="1080" height="900" as="geometry" />
        </mxCell>
        <mxCell id="9NwwkFvlH_R_vCz4P8hN-1" value="" style="rounded=0;whiteSpace=wrap;html=1;dashed=1;" parent="1" vertex="1">
          <mxGeometry x="140" y="370" width="420" height="416" as="geometry" />
        </mxCell>
        <mxCell id="mxjIfYWzx0AP6oLWilOj-14" style="edgeStyle=orthogonalEdgeStyle;rounded=0;orthogonalLoop=1;jettySize=auto;html=1;entryX=0.5;entryY=0;entryDx=0;entryDy=0;" parent="1" source="mxjIfYWzx0AP6oLWilOj-11" target="mxjIfYWzx0AP6oLWilOj-13" edge="1">
          <mxGeometry relative="1" as="geometry" />
        </mxCell>
        <mxCell id="mxjIfYWzx0AP6oLWilOj-11" value="Update attandance status" style="rounded=0;whiteSpace=wrap;html=1;" parent="1" vertex="1">
          <mxGeometry x="385" y="440" width="120" height="60" as="geometry" />
        </mxCell>
        <mxCell id="mxjIfYWzx0AP6oLWilOj-13" value="CRUD Attandance (Dashboard)" style="rounded=1;whiteSpace=wrap;html=1;" parent="1" vertex="1">
          <mxGeometry x="385" y="560" width="120" height="60" as="geometry" />
        </mxCell>
        <mxCell id="mxjIfYWzx0AP6oLWilOj-18" style="edgeStyle=orthogonalEdgeStyle;rounded=0;orthogonalLoop=1;jettySize=auto;html=1;entryX=0.5;entryY=1;entryDx=0;entryDy=0;" parent="1" source="mxjIfYWzx0AP6oLWilOj-15" target="mxjIfYWzx0AP6oLWilOj-13" edge="1">
          <mxGeometry relative="1" as="geometry" />
        </mxCell>
        <mxCell id="mxjIfYWzx0AP6oLWilOj-15" value="Admin" style="shape=umlActor;verticalLabelPosition=bottom;verticalAlign=top;html=1;outlineConnect=0;" parent="1" vertex="1">
          <mxGeometry x="430" y="680" width="30" height="60" as="geometry" />
        </mxCell>
        <mxCell id="mxjIfYWzx0AP6oLWilOj-26" style="edgeStyle=orthogonalEdgeStyle;rounded=0;orthogonalLoop=1;jettySize=auto;html=1;" parent="1" source="mxjIfYWzx0AP6oLWilOj-25" target="mxjIfYWzx0AP6oLWilOj-13" edge="1">
          <mxGeometry relative="1" as="geometry" />
        </mxCell>
        <mxCell id="mxjIfYWzx0AP6oLWilOj-25" value="Import attandance from google-form" style="rounded=0;whiteSpace=wrap;html=1;" parent="1" vertex="1">
          <mxGeometry x="195" y="560" width="120" height="60" as="geometry" />
        </mxCell>
        <mxCell id="9NwwkFvlH_R_vCz4P8hN-2" value="" style="rounded=0;whiteSpace=wrap;html=1;dashed=1;" parent="1" vertex="1">
          <mxGeometry x="570" y="-30" width="460" height="570" as="geometry" />
        </mxCell>
        <mxCell id="mxjIfYWzx0AP6oLWilOj-4" style="edgeStyle=orthogonalEdgeStyle;rounded=0;orthogonalLoop=1;jettySize=auto;html=1;entryX=0.5;entryY=0;entryDx=0;entryDy=0;" parent="1" source="mxjIfYWzx0AP6oLWilOj-2" target="4G0QMw7gdP-SG_3TJXQZ-1" edge="1">
          <mxGeometry relative="1" as="geometry" />
        </mxCell>
        <mxCell id="mxjIfYWzx0AP6oLWilOj-2" value="User" style="shape=umlActor;verticalLabelPosition=bottom;verticalAlign=top;html=1;outlineConnect=0;" parent="1" vertex="1">
          <mxGeometry x="735" width="30" height="60" as="geometry" />
        </mxCell>
        <mxCell id="mxjIfYWzx0AP6oLWilOj-3" value="Scan QR in the Vanue" style="rounded=0;whiteSpace=wrap;html=1;" parent="1" vertex="1">
          <mxGeometry x="690" y="330" width="120" height="60" as="geometry" />
        </mxCell>
        <mxCell id="mxjIfYWzx0AP6oLWilOj-8" style="edgeStyle=orthogonalEdgeStyle;rounded=0;orthogonalLoop=1;jettySize=auto;html=1;entryX=0.5;entryY=0;entryDx=0;entryDy=0;exitX=0.5;exitY=1;exitDx=0;exitDy=0;" parent="1" source="mxjIfYWzx0AP6oLWilOj-3" target="mxjIfYWzx0AP6oLWilOj-9" edge="1">
          <mxGeometry relative="1" as="geometry">
            <mxPoint x="915" y="430" as="targetPoint" />
            <mxPoint x="750" y="400" as="sourcePoint" />
          </mxGeometry>
        </mxCell>
        <mxCell id="mxjIfYWzx0AP6oLWilOj-9" value="checkin and show shirt size" style="rounded=0;whiteSpace=wrap;html=1;" parent="1" vertex="1">
          <mxGeometry x="690" y="440" width="120" height="60" as="geometry" />
        </mxCell>
        <mxCell id="4G0QMw7gdP-SG_3TJXQZ-2" style="edgeStyle=orthogonalEdgeStyle;rounded=0;orthogonalLoop=1;jettySize=auto;html=1;entryX=0.5;entryY=0;entryDx=0;entryDy=0;" edge="1" parent="1" source="4G0QMw7gdP-SG_3TJXQZ-1" target="4G0QMw7gdP-SG_3TJXQZ-3">
          <mxGeometry relative="1" as="geometry" />
        </mxCell>
        <mxCell id="4G0QMw7gdP-SG_3TJXQZ-6" value="" style="edgeStyle=orthogonalEdgeStyle;rounded=0;orthogonalLoop=1;jettySize=auto;html=1;" edge="1" parent="1" source="4G0QMw7gdP-SG_3TJXQZ-1" target="4G0QMw7gdP-SG_3TJXQZ-5">
          <mxGeometry relative="1" as="geometry" />
        </mxCell>
        <mxCell id="4G0QMw7gdP-SG_3TJXQZ-1" value="Login" style="rounded=1;whiteSpace=wrap;html=1;" vertex="1" parent="1">
          <mxGeometry x="690" y="120" width="120" height="60" as="geometry" />
        </mxCell>
        <mxCell id="4G0QMw7gdP-SG_3TJXQZ-4" style="edgeStyle=orthogonalEdgeStyle;rounded=0;orthogonalLoop=1;jettySize=auto;html=1;entryX=0.5;entryY=0;entryDx=0;entryDy=0;" edge="1" parent="1" source="4G0QMw7gdP-SG_3TJXQZ-3" target="mxjIfYWzx0AP6oLWilOj-3">
          <mxGeometry relative="1" as="geometry" />
        </mxCell>
        <mxCell id="4G0QMw7gdP-SG_3TJXQZ-3" value="Choose event and show the camera" style="rounded=0;whiteSpace=wrap;html=1;" vertex="1" parent="1">
          <mxGeometry x="690" y="225" width="120" height="60" as="geometry" />
        </mxCell>
        <mxCell id="mxjIfYWzx0AP6oLWilOj-12" style="edgeStyle=orthogonalEdgeStyle;rounded=0;orthogonalLoop=1;jettySize=auto;html=1;" parent="1" source="mxjIfYWzx0AP6oLWilOj-9" target="mxjIfYWzx0AP6oLWilOj-11" edge="1">
          <mxGeometry relative="1" as="geometry" />
        </mxCell>
        <mxCell id="4G0QMw7gdP-SG_3TJXQZ-5" value="phone_number" style="shape=process;whiteSpace=wrap;html=1;backgroundOutline=1;rounded=1;" vertex="1" parent="1">
          <mxGeometry x="860" y="120" width="120" height="60" as="geometry" />
        </mxCell>
      </root>
    </mxGraphModel>
  </diagram>
</mxfile>
